<svg
        id="Layer_1"
        data-name="Layer 1" xmlns="http://www.w3.org/2000/svg" viewBox="0 0 479.21 590.95"><defs>
    <style>.cls-1{fill:#fff; opacity:0.1}</style></defs><title>nush_logo_asterisk</title>
    <path class="cls-1" d="M336.5,340.13v6.15c0,35.8-.1,71.6.05,107.41.07,16-6.7,28.71-18.79,38.31-26.65,21.14-63.36,8.38-74.73-21.51a52.25,52.25,0,0,1-3.17-19.25c.11-35.09,0-70.18,0-105.27v-6.66c-4.32,2.42-7.85,4.32-11.32,6.33Q171,378.88,113.46,412.13a49.16,49.16,0,0,1-7.18,3.51c-6,2.26-11.84.45-15.36-5-3.19-4.92-6-10.06-9-15.14-8.71-15.1-17.44-30.19-26.06-45.34-4.19-7.37-2.59-14.28,4.68-18.8C70,325.53,79.52,320,89.07,314.52q32.58-18.84,65.22-37.57,15.74-9,31.48-18.07c1.53-.88,3-1.9,4.37-2.79-.32-2.21-2-2.67-3.36-3.43q-45.12-26-90.25-51.92-16.66-9.59-33.29-19.22a29,29,0,0,1-5.15-3.77c-4.85-4.57-5.85-10.72-2.53-16.51q17.25-30.11,34.7-60.09C94,94.81,101,92.76,107.89,96c3.7,1.71,7.22,3.85,10.77,5.89l117,67.55a17,17,0,0,0,1.84,1.08c1.56.67,2.37.08,2.4-1.59,0-1.25,0-2.5,0-3.74q0-68.14,0-136.27a50,50,0,0,1,.27-6.93c.88-6.17,5.43-10.34,11.64-10.37q36.35-.12,72.7,0c6.6,0,11.37,4.66,11.9,11.27.17,2.12.07,4.27.07,6.41q0,67.86,0,135.73c0,6.92,0,6.93,6.09,3.42L465.19,97.76a26.82,26.82,0,0,1,4.29-2.14c6.24-2.2,13.18-.88,17,5.84,10.52,18.58,21.31,37,32,55.5.53.92,1.06,1.85,1.6,2.77,4.92,8.43,3.15,15.7-5.21,20.76-6.55,3.95-13.19,7.77-19.82,11.59q-36.09,20.79-72.19,41.53-15.73,9.06-31.44,18.14c-1.66,1-3.56,1.64-5,3.45,1.22,2.62,4,3.39,6.11,4.64,15.84,9.24,31.76,18.33,47.65,27.48l72.63,41.88c1.08.62,2.17,1.23,3.2,1.93,7,4.8,8.85,12,4.63,19.4-7.77,13.59-15.68,27.11-23.53,40.66-3.38,5.85-7,11.58-10.08,17.59-4.11,8-13,9.53-19.55,5.73-9.24-5.35-18.52-10.63-27.77-16q-34.25-19.69-68.49-39.42c-9.56-5.51-19.08-11.1-28.65-16.59C340.86,341.59,339.4,340.14,336.5,340.13Z"
          transform="translate(-53.62 118.51) rotate(-25 0 125)"/>
</svg>
