<svg id="Layer_1" data-name="Layer 1" xmlns="http://www.w3.org/2000/svg" viewBox="0 0 496.7 496.7"><defs><style>.cls-1{fill:#333f48;}.cls-1,.cls-2,.cls-5{stroke:#65c5b3;stroke-linecap:round;stroke-linejoin:round;}.cls-1,.cls-2{stroke-width:0;}.cls-2{fill:url(#linear-gradient);}.cls-3{fill:url(#linear-gradient-2);}.cls-4{fill:url(#linear-gradient-3);}.cls-5{fill:#65c5b3;stroke-width:7px;}</style><linearGradient id="linear-gradient" x1="892.24" y1="725.12" x2="1068.92" y2="426.9" gradientUnits="userSpaceOnUse"><stop offset="0" stop-color="#4b5e6b"/><stop offset="0.25" stop-color="#495b68"/><stop offset="0.44" stop-color="#42535f"/><stop offset="0.6" stop-color="#37454f"/><stop offset="0.75" stop-color="#283239"/><stop offset="0.89" stop-color="#14191c"/><stop offset="1"/></linearGradient><linearGradient id="linear-gradient-2" x1="828.93" y1="732.59" x2="1190.46" y2="285.27" gradientUnits="userSpaceOnUse"><stop offset="0" stop-color="#65c5b3"/><stop offset="0.2" stop-color="#68c6b5"/><stop offset="0.36" stop-color="#72caba"/><stop offset="0.5" stop-color="#84d1c2"/><stop offset="0.65" stop-color="#9cdace"/><stop offset="0.78" stop-color="#bbe5de"/><stop offset="0.91" stop-color="#e1f4f0"/><stop offset="1" stop-color="#fff"/></linearGradient><linearGradient id="linear-gradient-3" x1="959.62" y1="517.52" x2="960.62" y2="762.02" gradientUnits="userSpaceOnUse"><stop offset="0" stop-color="#fff"/><stop offset="0.1" stop-color="#f1f9f5"/><stop offset="0.31" stop-color="#d7ede2"/><stop offset="0.53" stop-color="#c4e5d5"/><stop offset="0.75" stop-color="#b9e0cd"/><stop offset="1" stop-color="#b5deca"/></linearGradient></defs><title>hood</title><rect class="cls-1" width="496.7" height="496.7"/><path class="cls-2" d="M787.84,612.36c6.54-7.19,122.59-193.06,147.61-193.06,54.64,0,196.71,189.84,196.71,189.84C1063.41,605.84,938.37,657,938.37,657S854.3,619.65,787.84,612.36Z" transform="translate(-711.65 -291.65)"/><path id="path6" class="cls-3" d="M991.21,359.11c77.48,48.59,141,250,141,250-46-48.51-92.88-93.58-143.39-125a14.11,14.11,0,0,0-15.57.49c-10,7-27.34,18.42-35.11,18.42-8.7,0-26.42-11.07-35.52-17.17a12.1,12.1,0,0,0-13.69.11c-31,21.8-100.85,122.66-101,126.37,0,0,78.24-237.84,169-259.26A45.22,45.22,0,0,1,991.21,359.11Z" transform="translate(-711.65 -291.65)"/><g id="g14"><path id="path12" class="cls-4" d="M787.84,612.36s81,48.64,140,111.81a12.23,12.23,0,0,0,16.75,1c36.16-30,92.91-88.9,187.61-116.07C1063.41,605.84,938.37,657,938.37,657S854.3,619.65,787.84,612.36Z" transform="translate(-711.65 -291.65)"/></g><path class="cls-5" d="M960,540" transform="translate(-711.65 -291.65)"/></svg>
